# xmcd
#
# Track frame offsets: 
#        150
#        18543
#        27242
#        51452
#        69053
#        94179
#        107285
#        119454
#        139452
#        159361
#        170315
#        185608
#        205771
#        222419
#
# Disc length: 3219 seconds
#
# Revision: 0
# Processed by: cddbd v1.5.2PL0 Copyright (c) Steve Scherf et al.
# Submitted via: ExactAudioCopy v0.95a5
#
DISCID=c20c910e
DTITLE=Chatham County Line - Live In Caroline
DYEAR=2008
DGENRE=Bluegrass
TTITLE0=The Carolinian
TTITLE1=Clear Blue Sky
TTITLE2=By The Riverside
TTITLE3=I Got Worry
TTITLE4=Sweet Eviction
TTITLE5=Lonesome In Caroline
TTITLE6=Nowhere To Sleep
TTITLE7=Birmingham Jail
TTITLE8=What Would You Give In Exchange
TTITLE9=Bent Creek
TTITLE10=Whipping Boy
TTITLE11=Speed Of WhippoorWill
TTITLE12=Something
TTITLE13=Let It Rock
EXTD=
EXTT0=
EXTT1=
EXTT2=
EXTT3=
EXTT4=
EXTT5=
EXTT6=
EXTT7=
EXTT8=
EXTT9=
EXTT10=
EXTT11=
EXTT12=
EXTT13=
PLAYORDER=
